<svg id="visual" viewBox="0 0 900 600" xmlns="http://www.w3.org/2000/svg" xmlns:xlink="http://www.w3.org/1999/xlink" version="1.1">
    <path d="M629 600L644.2 585.7C659.3 571.3 689.7 542.7 686.7 514.2C683.7 485.7 647.3 457.3 629.3 428.8C611.3 400.3 611.7 371.7 627.3 343C643 314.3 674 285.7 671.2 257C668.3 228.3 631.7 199.7 633.3 171.2C635 142.7 675 114.3 686.7 85.8C698.3 57.3 681.7 28.7 673.3 14.3L665 0L900 0L900 14.3C900 28.7 900 57.3 900 85.8C900 114.3 900 142.7 900 171.2C900 199.7 900 228.3 900 257C900 285.7 900 314.3 900 343C900 371.7 900 400.3 900 428.8C900 457.3 900 485.7 900 514.2C900 542.7 900 571.3 900 585.7L900 600Z" fill="#4294b6" stroke-linecap="round" stroke-linejoin="miter"></path>
</svg>
